<svg width="52" height="50" viewBox="0 0 52 50" fill="none" xmlns="http://www.w3.org/2000/svg">
<path fill-rule="evenodd" clip-rule="evenodd" d="M51.1539 4.74196C52.282 3.65717 52.282 1.89838 51.1539 0.813592C50.0257 -0.271198 48.1965 -0.271197 47.0684 0.813592L26 21.0716L4.93164 0.813592C3.80346 -0.271197 1.97432 -0.271197 0.846136 0.813592C-0.282045 1.89838 -0.282045 3.65717 0.846136 4.74196L21.9145 25L0.84614 45.258C-0.282042 46.3428 -0.282043 48.1016 0.846139 49.1864C1.97432 50.2712 3.80346 50.2712 4.93165 49.1864L26 28.9284L47.0684 49.1864C48.1965 50.2712 50.0257 50.2712 51.1539 49.1864C52.282 48.1016 52.282 46.3428 51.1539 45.258L30.0855 25L51.1539 4.74196Z" fill="white"/>
</svg>
