<svg width="70" height="61" viewBox="0 0 70 61" fill="none" xmlns="http://www.w3.org/2000/svg">
<path d="M59.5 0.083252H10.5C7.71523 0.083252 5.04451 1.04463 3.07538 2.7559C1.10625 4.46717 0 6.78815 0 9.20825V39.6249C0 42.045 1.10625 44.366 3.07538 46.0773C5.04451 47.7885 7.71523 48.7499 10.5 48.7499H51.065L64.015 60.0345C64.342 60.3164 64.7299 60.5394 65.1563 60.6908C65.5828 60.8422 66.0394 60.9189 66.5 60.9166C66.9591 60.9269 67.4146 60.8435 67.83 60.6732C68.4692 60.4451 69.0163 60.0576 69.4025 59.5596C69.7886 59.0616 69.9966 58.4754 70 57.8749V9.20825C70 6.78815 68.8938 4.46717 66.9246 2.7559C64.9555 1.04463 62.2848 0.083252 59.5 0.083252ZM63 50.5445L54.985 43.5487C54.658 43.2668 54.2701 43.0437 53.8437 42.8924C53.4172 42.741 52.9606 42.6643 52.5 42.6666H10.5C9.57174 42.6666 8.6815 42.3461 8.02513 41.7757C7.36875 41.2053 7 40.4316 7 39.6249V9.20825C7 8.40155 7.36875 7.62789 8.02513 7.05747C8.6815 6.48705 9.57174 6.16658 10.5 6.16658H59.5C60.4283 6.16658 61.3185 6.48705 61.9749 7.05747C62.6313 7.62789 63 8.40155 63 9.20825V50.5445Z" fill="#9E07FA"/>
</svg>
