<svg width="571" height="562" viewBox="0 0 771 762" fill="none" xmlns="http://www.w3.org/2000/svg">
<g filter="url(#filter0_d_36_167)">
<g filter="url(#filter1_f_36_167)">
<ellipse cx="385.5" cy="381" rx="225.5" ry="221" fill="white" fill-opacity="0.1"/>
</g>
<path opacity="0.16" fill-rule="evenodd" clip-rule="evenodd" d="M218.499 427.703C216.362 425.897 214.291 424.018 212.292 422.07L211.733 421.563C211.727 421.558 211.731 421.548 211.739 421.548C211.746 421.548 211.75 421.539 211.745 421.534C190.511 400.577 177.401 371.769 177.401 339.973C177.401 275.898 230.641 223.955 296.315 223.955C328.656 223.955 357.981 243.065 379.418 264.669C382.753 268.03 388.244 268.03 391.579 264.669C413.016 243.065 442.343 223.955 474.684 223.955C540.358 223.955 593.598 275.898 593.598 339.973C593.598 371.769 580.488 400.578 559.254 421.534C559.248 421.54 559.252 421.548 559.259 421.548C559.267 421.548 559.27 421.557 559.265 421.562L558.732 422.046C556.716 424.011 554.629 425.905 552.473 427.726L390.875 574.381C387.825 577.149 383.172 577.149 380.122 574.381L218.499 427.703Z" fill="url(#paint0_linear_36_167)"/>
<g filter="url(#filter2_dddddd_36_167)">
<g filter="url(#filter3_iii_36_167)">
<path fill-rule="evenodd" clip-rule="evenodd" d="M278.096 418.309C276.729 417.153 275.405 415.951 274.126 414.704L273.769 414.379C273.765 414.376 273.767 414.37 273.772 414.37C273.777 414.37 273.78 414.364 273.776 414.36C260.195 400.948 251.81 382.511 251.81 362.162C251.81 321.154 285.862 287.91 327.867 287.91C347.43 287.91 365.268 298.849 378.744 311.732C382.168 315.005 387.651 315.005 391.075 311.732C404.551 298.849 422.39 287.91 441.953 287.91C483.958 287.91 518.01 321.154 518.01 362.162C518.01 382.511 509.625 400.949 496.044 414.361C496.04 414.364 496.043 414.37 496.047 414.37C496.052 414.37 496.054 414.376 496.051 414.379L495.71 414.688C494.421 415.946 493.086 417.158 491.707 418.323L390.288 510.422C387.237 513.192 382.582 513.192 379.531 510.422L278.096 418.309Z" fill="#9A80FD"/>
</g>
</g>
</g>
<defs>
<filter id="filter0_d_36_167" x="156" y="160" width="459" height="450" filterUnits="userSpaceOnUse" color-interpolation-filters="sRGB">
<feFlood flood-opacity="0" result="BackgroundImageFix"/>
<feColorMatrix in="SourceAlpha" type="matrix" values="0 0 0 0 0 0 0 0 0 0 0 0 0 0 0 0 0 0 127 0" result="hardAlpha"/>
<feOffset dy="4"/>
<feGaussianBlur stdDeviation="2"/>
<feComposite in2="hardAlpha" operator="out"/>
<feColorMatrix type="matrix" values="0 0 0 0 0 0 0 0 0 0 0 0 0 0 0 0 0 0 0.25 0"/>
<feBlend mode="normal" in2="BackgroundImageFix" result="effect1_dropShadow_36_167"/>
<feBlend mode="normal" in="SourceGraphic" in2="effect1_dropShadow_36_167" result="shape"/>
</filter>
<filter id="filter1_f_36_167" x="0" y="0" width="771" height="762" filterUnits="userSpaceOnUse" color-interpolation-filters="sRGB">
<feFlood flood-opacity="0" result="BackgroundImageFix"/>
<feBlend mode="normal" in="SourceGraphic" in2="BackgroundImageFix" result="shape"/>
<feGaussianBlur stdDeviation="80" result="effect1_foregroundBlur_36_167"/>
</filter>
<filter id="filter2_dddddd_36_167" x="171.81" y="287.91" width="426.2" height="404.589" filterUnits="userSpaceOnUse" color-interpolation-filters="sRGB">
<feFlood flood-opacity="0" result="BackgroundImageFix"/>
<feColorMatrix in="SourceAlpha" type="matrix" values="0 0 0 0 0 0 0 0 0 0 0 0 0 0 0 0 0 0 127 0" result="hardAlpha"/>
<feOffset dy="2.76726"/>
<feGaussianBlur stdDeviation="1.1069"/>
<feColorMatrix type="matrix" values="0 0 0 0 0.603922 0 0 0 0 0.501961 0 0 0 0 0.992157 0 0 0 0.0196802 0"/>
<feBlend mode="normal" in2="BackgroundImageFix" result="effect1_dropShadow_36_167"/>
<feColorMatrix in="SourceAlpha" type="matrix" values="0 0 0 0 0 0 0 0 0 0 0 0 0 0 0 0 0 0 127 0" result="hardAlpha"/>
<feOffset dy="6.6501"/>
<feGaussianBlur stdDeviation="2.66004"/>
<feColorMatrix type="matrix" values="0 0 0 0 0.603922 0 0 0 0 0.501961 0 0 0 0 0.992157 0 0 0 0.0282725 0"/>
<feBlend mode="normal" in2="effect1_dropShadow_36_167" result="effect2_dropShadow_36_167"/>
<feColorMatrix in="SourceAlpha" type="matrix" values="0 0 0 0 0 0 0 0 0 0 0 0 0 0 0 0 0 0 127 0" result="hardAlpha"/>
<feOffset dy="12.5216"/>
<feGaussianBlur stdDeviation="5.00862"/>
<feColorMatrix type="matrix" values="0 0 0 0 0.603922 0 0 0 0 0.501961 0 0 0 0 0.992157 0 0 0 0.035 0"/>
<feBlend mode="normal" in2="effect2_dropShadow_36_167" result="effect3_dropShadow_36_167"/>
<feColorMatrix in="SourceAlpha" type="matrix" values="0 0 0 0 0 0 0 0 0 0 0 0 0 0 0 0 0 0 127 0" result="hardAlpha"/>
<feOffset dy="22.3363"/>
<feGaussianBlur stdDeviation="8.93452"/>
<feColorMatrix type="matrix" values="0 0 0 0 0.603922 0 0 0 0 0.501961 0 0 0 0 0.992157 0 0 0 0.0417275 0"/>
<feBlend mode="normal" in2="effect3_dropShadow_36_167" result="effect4_dropShadow_36_167"/>
<feColorMatrix in="SourceAlpha" type="matrix" values="0 0 0 0 0 0 0 0 0 0 0 0 0 0 0 0 0 0 127 0" result="hardAlpha"/>
<feOffset dy="41.7776"/>
<feGaussianBlur stdDeviation="16.711"/>
<feColorMatrix type="matrix" values="0 0 0 0 0.603922 0 0 0 0 0.501961 0 0 0 0 0.992157 0 0 0 0.0503198 0"/>
<feBlend mode="normal" in2="effect4_dropShadow_36_167" result="effect5_dropShadow_36_167"/>
<feColorMatrix in="SourceAlpha" type="matrix" values="0 0 0 0 0 0 0 0 0 0 0 0 0 0 0 0 0 0 127 0" result="hardAlpha"/>
<feOffset dy="100"/>
<feGaussianBlur stdDeviation="40"/>
<feColorMatrix type="matrix" values="0 0 0 0 0.603922 0 0 0 0 0.501961 0 0 0 0 0.992157 0 0 0 0.07 0"/>
<feBlend mode="normal" in2="effect5_dropShadow_36_167" result="effect6_dropShadow_36_167"/>
<feBlend mode="normal" in="SourceGraphic" in2="effect6_dropShadow_36_167" result="shape"/>
</filter>
<filter id="filter3_iii_36_167" x="227.81" y="247.91" width="330.2" height="288.589" filterUnits="userSpaceOnUse" color-interpolation-filters="sRGB">
<feFlood flood-opacity="0" result="BackgroundImageFix"/>
<feBlend mode="normal" in="SourceGraphic" in2="BackgroundImageFix" result="shape"/>
<feColorMatrix in="SourceAlpha" type="matrix" values="0 0 0 0 0 0 0 0 0 0 0 0 0 0 0 0 0 0 127 0" result="hardAlpha"/>
<feOffset dx="40" dy="-40"/>
<feGaussianBlur stdDeviation="20"/>
<feComposite in2="hardAlpha" operator="arithmetic" k2="-1" k3="1"/>
<feColorMatrix type="matrix" values="0 0 0 0 0 0 0 0 0 0 0 0 0 0 0 0 0 0 0.08 0"/>
<feBlend mode="normal" in2="shape" result="effect1_innerShadow_36_167"/>
<feColorMatrix in="SourceAlpha" type="matrix" values="0 0 0 0 0 0 0 0 0 0 0 0 0 0 0 0 0 0 127 0" result="hardAlpha"/>
<feOffset dx="-16" dy="16"/>
<feGaussianBlur stdDeviation="20"/>
<feComposite in2="hardAlpha" operator="arithmetic" k2="-1" k3="1"/>
<feColorMatrix type="matrix" values="0 0 0 0 1 0 0 0 0 1 0 0 0 0 1 0 0 0 0.25 0"/>
<feBlend mode="normal" in2="effect1_innerShadow_36_167" result="effect2_innerShadow_36_167"/>
<feColorMatrix in="SourceAlpha" type="matrix" values="0 0 0 0 0 0 0 0 0 0 0 0 0 0 0 0 0 0 127 0" result="hardAlpha"/>
<feOffset dx="-24" dy="24"/>
<feGaussianBlur stdDeviation="40"/>
<feComposite in2="hardAlpha" operator="arithmetic" k2="-1" k3="1"/>
<feColorMatrix type="matrix" values="0 0 0 0 1 0 0 0 0 1 0 0 0 0 1 0 0 0 0.4 0"/>
<feBlend mode="normal" in2="effect2_innerShadow_36_167" result="effect3_innerShadow_36_167"/>
</filter>
<linearGradient id="paint0_linear_36_167" x1="385.499" y1="108.836" x2="385.499" y2="598.447" gradientUnits="userSpaceOnUse">
<stop stop-color="#9A80FD"/>
<stop offset="1" stop-color="#9A80FD" stop-opacity="0"/>
</linearGradient>
</defs>
</svg>
