<svg width="1062" height="1013" viewBox="0 0 1062 1013" fill="none" xmlns="http://www.w3.org/2000/svg">
<g filter="url(#filter0_d_79_204)">
<g filter="url(#filter1_f_79_204)">
<ellipse cx="531" cy="506.5" rx="371" ry="346.5" fill="white" fill-opacity="0.1"/>
</g>
<path opacity="0.16" fill-rule="evenodd" clip-rule="evenodd" d="M256.244 579.725C252.728 576.894 249.322 573.947 246.032 570.893L245.113 570.098C245.104 570.09 245.11 570.075 245.122 570.075V570.075C245.134 570.075 245.14 570.06 245.131 570.051C210.198 537.194 188.629 492.027 188.629 442.175C188.629 341.714 276.22 260.273 384.269 260.273C439.583 260.273 489.533 292.653 525.117 328.143C528.361 331.378 533.635 331.378 536.879 328.143C572.463 292.653 622.416 260.273 677.729 260.273C785.778 260.273 873.369 341.714 873.369 442.175C873.369 492.027 851.8 537.195 816.866 570.052C816.857 570.06 816.863 570.075 816.875 570.075V570.075C816.887 570.075 816.892 570.09 816.883 570.097L816.007 570.855C812.691 573.936 809.256 576.906 805.71 579.76L536.231 812.821C533.226 815.42 528.769 815.42 525.764 812.821L256.244 579.725Z" fill="url(#paint0_linear_79_204)"/>
<g filter="url(#filter2_dddddd_79_204)">
<g filter="url(#filter3_iii_79_204)">
<path fill-rule="evenodd" clip-rule="evenodd" d="M355.296 564.996C353.048 563.184 350.869 561.298 348.765 559.343L348.177 558.835C348.171 558.83 348.175 558.82 348.183 558.82V558.82C348.191 558.82 348.194 558.81 348.189 558.805C325.845 537.776 312.05 508.869 312.05 476.964C312.05 412.669 368.073 360.547 437.182 360.547C471.45 360.547 502.501 379.99 525.099 401.852C528.393 405.039 533.665 405.039 536.96 401.852C559.558 379.99 590.61 360.547 624.879 360.547C693.987 360.547 750.011 412.669 750.011 476.964C750.011 508.869 736.215 537.777 713.871 558.805C713.866 558.811 713.869 558.82 713.877 558.82V558.82C713.885 558.82 713.888 558.829 713.882 558.834L713.322 559.319C711.201 561.291 709.004 563.192 706.736 565.019L536.264 712.544C533.259 715.145 528.8 715.145 525.794 712.544L355.296 564.996Z" fill="#9A80FD"/>
</g>
</g>
</g>
<defs>
<filter id="filter0_d_79_204" x="156" y="160" width="750" height="701" filterUnits="userSpaceOnUse" color-interpolation-filters="sRGB">
<feFlood flood-opacity="0" result="BackgroundImageFix"/>
<feColorMatrix in="SourceAlpha" type="matrix" values="0 0 0 0 0 0 0 0 0 0 0 0 0 0 0 0 0 0 127 0" result="hardAlpha"/>
<feOffset dy="4"/>
<feGaussianBlur stdDeviation="2"/>
<feComposite in2="hardAlpha" operator="out"/>
<feColorMatrix type="matrix" values="0 0 0 0 0 0 0 0 0 0 0 0 0 0 0 0 0 0 0.25 0"/>
<feBlend mode="normal" in2="BackgroundImageFix" result="effect1_dropShadow_79_204"/>
<feBlend mode="normal" in="SourceGraphic" in2="effect1_dropShadow_79_204" result="shape"/>
</filter>
<filter id="filter1_f_79_204" x="0" y="0" width="1062" height="1013" filterUnits="userSpaceOnUse" color-interpolation-filters="sRGB">
<feFlood flood-opacity="0" result="BackgroundImageFix"/>
<feBlend mode="normal" in="SourceGraphic" in2="BackgroundImageFix" result="shape"/>
<feGaussianBlur stdDeviation="80" result="effect1_foregroundBlur_79_204"/>
</filter>
<filter id="filter2_dddddd_79_204" x="232.05" y="360.547" width="597.961" height="533.948" filterUnits="userSpaceOnUse" color-interpolation-filters="sRGB">
<feFlood flood-opacity="0" result="BackgroundImageFix"/>
<feColorMatrix in="SourceAlpha" type="matrix" values="0 0 0 0 0 0 0 0 0 0 0 0 0 0 0 0 0 0 127 0" result="hardAlpha"/>
<feOffset dy="2.76726"/>
<feGaussianBlur stdDeviation="1.1069"/>
<feColorMatrix type="matrix" values="0 0 0 0 0.603922 0 0 0 0 0.501961 0 0 0 0 0.992157 0 0 0 0.0196802 0"/>
<feBlend mode="normal" in2="BackgroundImageFix" result="effect1_dropShadow_79_204"/>
<feColorMatrix in="SourceAlpha" type="matrix" values="0 0 0 0 0 0 0 0 0 0 0 0 0 0 0 0 0 0 127 0" result="hardAlpha"/>
<feOffset dy="6.6501"/>
<feGaussianBlur stdDeviation="2.66004"/>
<feColorMatrix type="matrix" values="0 0 0 0 0.603922 0 0 0 0 0.501961 0 0 0 0 0.992157 0 0 0 0.0282725 0"/>
<feBlend mode="normal" in2="effect1_dropShadow_79_204" result="effect2_dropShadow_79_204"/>
<feColorMatrix in="SourceAlpha" type="matrix" values="0 0 0 0 0 0 0 0 0 0 0 0 0 0 0 0 0 0 127 0" result="hardAlpha"/>
<feOffset dy="12.5216"/>
<feGaussianBlur stdDeviation="5.00862"/>
<feColorMatrix type="matrix" values="0 0 0 0 0.603922 0 0 0 0 0.501961 0 0 0 0 0.992157 0 0 0 0.035 0"/>
<feBlend mode="normal" in2="effect2_dropShadow_79_204" result="effect3_dropShadow_79_204"/>
<feColorMatrix in="SourceAlpha" type="matrix" values="0 0 0 0 0 0 0 0 0 0 0 0 0 0 0 0 0 0 127 0" result="hardAlpha"/>
<feOffset dy="22.3363"/>
<feGaussianBlur stdDeviation="8.93452"/>
<feColorMatrix type="matrix" values="0 0 0 0 0.603922 0 0 0 0 0.501961 0 0 0 0 0.992157 0 0 0 0.0417275 0"/>
<feBlend mode="normal" in2="effect3_dropShadow_79_204" result="effect4_dropShadow_79_204"/>
<feColorMatrix in="SourceAlpha" type="matrix" values="0 0 0 0 0 0 0 0 0 0 0 0 0 0 0 0 0 0 127 0" result="hardAlpha"/>
<feOffset dy="41.7776"/>
<feGaussianBlur stdDeviation="16.711"/>
<feColorMatrix type="matrix" values="0 0 0 0 0.603922 0 0 0 0 0.501961 0 0 0 0 0.992157 0 0 0 0.0503198 0"/>
<feBlend mode="normal" in2="effect4_dropShadow_79_204" result="effect5_dropShadow_79_204"/>
<feColorMatrix in="SourceAlpha" type="matrix" values="0 0 0 0 0 0 0 0 0 0 0 0 0 0 0 0 0 0 127 0" result="hardAlpha"/>
<feOffset dy="100"/>
<feGaussianBlur stdDeviation="40"/>
<feColorMatrix type="matrix" values="0 0 0 0 0.603922 0 0 0 0 0.501961 0 0 0 0 0.992157 0 0 0 0.07 0"/>
<feBlend mode="normal" in2="effect5_dropShadow_79_204" result="effect6_dropShadow_79_204"/>
<feBlend mode="normal" in="SourceGraphic" in2="effect6_dropShadow_79_204" result="shape"/>
</filter>
<filter id="filter3_iii_79_204" x="288.05" y="320.547" width="501.961" height="417.948" filterUnits="userSpaceOnUse" color-interpolation-filters="sRGB">
<feFlood flood-opacity="0" result="BackgroundImageFix"/>
<feBlend mode="normal" in="SourceGraphic" in2="BackgroundImageFix" result="shape"/>
<feColorMatrix in="SourceAlpha" type="matrix" values="0 0 0 0 0 0 0 0 0 0 0 0 0 0 0 0 0 0 127 0" result="hardAlpha"/>
<feOffset dx="40" dy="-40"/>
<feGaussianBlur stdDeviation="20"/>
<feComposite in2="hardAlpha" operator="arithmetic" k2="-1" k3="1"/>
<feColorMatrix type="matrix" values="0 0 0 0 0 0 0 0 0 0 0 0 0 0 0 0 0 0 0.08 0"/>
<feBlend mode="normal" in2="shape" result="effect1_innerShadow_79_204"/>
<feColorMatrix in="SourceAlpha" type="matrix" values="0 0 0 0 0 0 0 0 0 0 0 0 0 0 0 0 0 0 127 0" result="hardAlpha"/>
<feOffset dx="-16" dy="16"/>
<feGaussianBlur stdDeviation="20"/>
<feComposite in2="hardAlpha" operator="arithmetic" k2="-1" k3="1"/>
<feColorMatrix type="matrix" values="0 0 0 0 1 0 0 0 0 1 0 0 0 0 1 0 0 0 0.25 0"/>
<feBlend mode="normal" in2="effect1_innerShadow_79_204" result="effect2_innerShadow_79_204"/>
<feColorMatrix in="SourceAlpha" type="matrix" values="0 0 0 0 0 0 0 0 0 0 0 0 0 0 0 0 0 0 127 0" result="hardAlpha"/>
<feOffset dx="-24" dy="24"/>
<feGaussianBlur stdDeviation="40"/>
<feComposite in2="hardAlpha" operator="arithmetic" k2="-1" k3="1"/>
<feColorMatrix type="matrix" values="0 0 0 0 1 0 0 0 0 1 0 0 0 0 1 0 0 0 0.4 0"/>
<feBlend mode="normal" in2="effect2_innerShadow_79_204" result="effect3_innerShadow_79_204"/>
</filter>
<linearGradient id="paint0_linear_79_204" x1="530.999" y1="79.7815" x2="530.999" y2="847.429" gradientUnits="userSpaceOnUse">
<stop stop-color="#9A80FD"/>
<stop offset="1" stop-color="#9A80FD" stop-opacity="0"/>
</linearGradient>
</defs>
</svg>
