<svg width="74" height="73" viewBox="0 0 74 73" fill="none" xmlns="http://www.w3.org/2000/svg">
<path d="M66.92 8.20835C63.0332 3.9129 57.881 1.2912 52.3939 0.81683C46.9069 0.342459 41.4468 2.04669 37 5.62168C32.3348 1.7968 26.528 0.0624172 20.7491 0.767793C14.9701 1.47317 9.64829 4.56591 5.85525 9.42321C2.0622 14.2805 0.0796952 20.5416 0.306951 26.9456C0.534206 33.3496 2.95435 39.4208 7.08001 43.9367L29.85 69.0759C31.7567 71.1443 34.3248 72.3036 37 72.3036C39.6753 72.3036 42.2433 71.1443 44.15 69.0759L66.92 43.9367C71.2011 39.1888 73.6041 32.7666 73.6041 26.0725C73.6041 19.3784 71.2011 12.9562 66.92 8.20835ZM61.75 38.3592L38.98 63.4579C38.7209 63.7463 38.4125 63.9752 38.0727 64.1315C37.7328 64.2877 37.3682 64.3682 37 64.3682C36.6318 64.3682 36.2672 64.2877 35.9274 64.1315C35.5875 63.9752 35.2791 63.7463 35.02 63.4579L12.25 38.2379C9.37446 34.9979 7.76425 30.6455 7.76425 26.1129C7.76425 21.5803 9.37446 17.228 12.25 13.9879C15.1803 10.799 19.1322 9.0109 23.25 9.0109C27.3678 9.0109 31.3198 10.799 34.25 13.9879C34.5909 14.3668 34.9964 14.6674 35.4432 14.8726C35.89 15.0778 36.3693 15.1835 36.8533 15.1835C37.3374 15.1835 37.8166 15.0778 38.2635 14.8726C38.7103 14.6674 39.1158 14.3668 39.4567 13.9879C42.3869 10.799 46.3389 9.0109 50.4567 9.0109C54.5744 9.0109 58.5264 10.799 61.4567 13.9879C64.3717 17.1855 66.0348 21.5143 66.0897 26.047C66.1445 30.5797 64.5867 34.9558 61.75 38.2379V38.3592Z" fill="#9E07FA"/>
</svg>
