<svg width="113" height="88" viewBox="0 0 113 88" fill="none" xmlns="http://www.w3.org/2000/svg">
<path d="M91.5741 0.19088L91.3445 0.381546L91.3887 1.56954C91.424 2.47154 91.4152 2.61821 91.3534 2.20021C91.318 1.89954 91.2562 1.50354 91.2298 1.32755C91.1327 0.689545 90.603 0.513542 90.1792 0.98288C90.0203 1.16621 90.0027 1.28355 90.0203 2.07555C90.0291 2.56688 90.0998 3.51288 90.1792 4.18021C90.3646 5.79354 90.4352 7.48754 90.3205 7.62688C90.1527 7.82487 89.932 7.61221 89.42 6.75421C88.8903 5.88155 88.6078 5.57354 88.1399 5.39021C87.4425 5.11887 86.9746 5.61755 87.3542 6.22621C87.4248 6.34354 87.5396 6.66621 87.6102 6.95221C87.7073 7.32621 87.8398 7.60487 88.1046 7.92754C88.3077 8.16954 88.6078 8.60954 88.7667 8.89555C89.0139 9.35021 89.2523 9.58488 90.3999 10.5529L91.7418 11.6895L91.883 12.2029C92.0949 12.9582 92.0861 16.6469 91.8742 18.3702C91.6623 20.0715 91.5829 23.1735 91.7153 24.3469C91.936 26.2095 91.9802 27.0749 91.9095 27.7275C91.8654 28.0942 91.7948 28.4242 91.7418 28.4682C91.6712 28.5269 91.4681 28.4169 91.0444 28.0942C90.6736 27.8082 90.1704 27.5295 89.7202 27.3462C89.1198 27.1042 88.9609 27.0015 88.7756 26.7302C88.4313 26.2462 88.1046 25.9602 87.9016 25.9602C87.7956 25.9602 87.6279 25.9089 87.5308 25.8429C87.3189 25.7109 87.0364 25.7549 86.2507 26.0335C85.8623 26.1729 85.3856 26.2682 84.7588 26.3269C84.2555 26.3709 83.6023 26.4735 83.3021 26.5469C81.0333 27.1335 78.0494 29.9055 77.1313 32.2815C76.8929 32.8975 76.734 33.1835 76.5309 33.3522C76.3809 33.4842 76.2131 33.5869 76.1513 33.5869C76.0984 33.5795 75.8865 33.2935 75.6834 32.9489C75.3568 32.3989 75.3038 32.3475 75.3038 32.5602C75.3038 32.7875 75.295 32.7949 74.9507 32.7655C74.4916 32.7289 74.4916 32.8462 74.9507 33.1029C75.295 33.2935 75.295 33.3009 75.2774 33.7115L75.2597 34.1369L74.5534 34.3422C73.9002 34.5329 73.7854 34.5989 72.9732 35.2589C72.1963 35.8895 72.0727 36.0289 71.8874 36.4469C71.7726 36.7109 71.702 36.9675 71.7284 37.0115C71.7461 37.0629 71.7108 37.2169 71.6402 37.3562C71.4813 37.6715 71.4724 37.9649 71.6137 38.0015C71.6843 38.0235 71.6755 38.1922 71.5607 38.6615C71.4548 39.1382 71.4018 39.8202 71.3753 41.4775C71.3223 44.5282 71.2517 45.6942 71.0928 46.4495C70.9251 47.2269 70.9781 48.9209 71.1899 49.9769C71.2694 50.3362 71.3312 50.8202 71.3312 51.0402C71.3312 51.2602 71.4106 51.6855 71.5077 51.9862C71.6049 52.2795 71.6578 52.6022 71.6313 52.6975C71.6049 52.7929 71.6225 52.9835 71.6843 53.1302C71.7638 53.3355 71.7638 53.4162 71.6755 53.5042C71.596 53.5922 71.6049 53.6655 71.7284 53.9002C71.852 54.1349 71.8697 54.2449 71.7991 54.4795C71.7461 54.6409 71.7196 54.8462 71.7373 54.9415C71.7549 55.0369 71.8785 55.6382 72.0021 56.2835C72.1257 56.9289 72.3111 57.6549 72.4082 57.8969C72.5053 58.1389 72.6113 58.5349 72.6466 58.7769C72.6995 59.2095 72.7084 59.2169 72.9644 59.2095C73.1145 59.2095 73.2557 59.2389 73.291 59.2755C73.344 59.3489 73.5382 58.8795 73.5382 58.6522C73.5382 58.4029 73.7324 57.7869 73.8119 57.7869C73.856 57.7869 73.8913 57.9042 73.8913 58.0435C73.8913 58.1829 73.9266 58.3002 73.962 58.3002C74.0061 58.3002 74.1738 58.1022 74.3327 57.8529C74.5005 57.6109 74.6947 57.3689 74.7653 57.3249C74.8713 57.2515 74.8801 57.2735 74.8271 57.5009C74.7653 57.7722 74.8271 58.0069 74.9507 58.0069C74.986 58.0069 75.0655 57.8529 75.1273 57.6549C75.2332 57.2809 75.5598 56.5842 76.0013 55.7849C76.2661 55.2935 76.2749 55.2862 76.4691 55.3962C76.7781 55.5722 76.9459 55.5355 77.2372 55.2275C77.3873 55.0735 77.5109 54.9269 77.5109 54.9049C77.5109 54.8829 77.555 54.7729 77.5991 54.6629L77.6963 54.4649L77.9523 54.7582C78.1818 55.0149 78.6585 55.3595 78.6585 55.2642C78.6585 55.2495 78.5967 55.1395 78.5261 55.0295C78.4555 54.9122 78.3937 54.7655 78.3937 54.6995C78.3937 54.6409 78.3319 54.5235 78.2613 54.4429C78.0759 54.2449 78.1023 53.9809 78.3584 53.2182C78.5526 52.6462 78.5791 52.4335 78.5526 51.8249C78.5349 51.4362 78.5438 51.1135 78.5791 51.1135C78.6674 51.1135 79.6826 52.0155 79.7973 52.1989C79.8591 52.2942 79.9651 52.5289 80.0357 52.7269C80.1681 53.0862 80.3888 53.2549 80.4859 53.0495C80.5124 52.9909 80.433 52.7635 80.3094 52.5582C80.0092 52.0595 79.6208 50.9962 79.6826 50.8642C79.7091 50.8055 79.6296 50.5782 79.4972 50.3655C79.3648 50.1529 79.197 49.8449 79.1352 49.6909C79.0646 49.5295 78.8174 49.1482 78.5791 48.8475C77.9964 48.0849 77.811 47.7549 77.7492 47.3882C77.7227 47.1829 77.5727 46.9042 77.3431 46.6255C77.0695 46.2882 76.9988 46.1342 77.043 46.0242C77.2372 45.5842 77.0077 44.6529 76.5751 44.1322C76.3014 43.8095 75.8335 42.5409 75.8335 42.1155C75.8335 41.9469 75.7717 41.5655 75.6923 41.2722C75.1449 39.1162 75.1891 36.8282 75.8159 35.7869C76.0189 35.4495 76.0984 35.3762 76.3191 35.3615C76.4691 35.3469 76.6281 35.3102 76.6722 35.2735C76.7252 35.2442 76.8929 35.1929 77.0518 35.1635C77.2902 35.1269 77.3343 35.1342 77.3343 35.2515C77.3343 35.3249 77.4491 35.5815 77.5991 35.8162C77.8552 36.2489 77.8552 36.2562 77.8022 37.2095C77.7492 38.3169 77.8552 38.7862 78.3584 39.6442C79.1352 40.9569 80.9097 42.1669 82.0574 42.1669C82.2516 42.1669 82.437 42.2255 82.5959 42.3502C82.7901 42.5042 82.9225 42.5335 83.3374 42.5335C83.6817 42.5335 83.8848 42.4969 83.9554 42.4235C84.0172 42.3575 84.2114 42.3135 84.4056 42.3135C84.7146 42.3135 84.7499 42.3355 84.7499 42.4895C84.7499 42.5922 84.7852 42.7535 84.8382 42.8635C84.9971 43.2155 84.5734 45.1222 84.079 46.2515C83.4875 47.6229 83.4434 47.9455 83.6906 49.1775C83.8759 50.1235 83.8848 50.2995 83.823 51.7735C83.7082 54.3182 83.7347 55.6162 83.9201 56.0562C84.0084 56.2469 84.0348 56.4815 83.9995 56.6869C83.9731 56.8702 83.9377 57.6402 83.9201 58.4102C83.8848 59.9209 83.7259 60.7275 83.2933 61.6222C83.1697 61.8789 83.0814 62.1722 83.0902 62.2675C83.1167 62.5169 82.6665 63.8295 82.3928 64.3135C81.9338 65.1422 79.506 67.4082 78.6585 67.8189C78.4378 67.9215 78.1288 68.0975 77.9699 68.2075C77.7227 68.3689 77.608 68.3982 77.3166 68.3615C77.0165 68.3322 76.9724 68.3469 76.9988 68.4642C77.0341 68.6475 75.5157 69.3222 74.5093 69.5715C73.3793 69.8429 71.9668 70.3049 71.4371 70.5689C70.7397 70.9135 69.8657 71.5589 69.2124 72.1969C68.8946 72.5122 68.4974 72.8569 68.3208 72.9669C68.1531 73.0842 67.8264 73.4509 67.5969 73.7955C67.1025 74.5215 66.8112 74.7635 66.3698 74.8295C66.1667 74.8589 65.999 74.9469 65.9107 75.0569C65.6988 75.3209 65.1074 75.5555 64.7895 75.4969C64.5777 75.4602 64.4894 75.4895 64.2775 75.6875C64.0656 75.8782 63.9332 75.9295 63.6331 75.9442C63.4212 75.9515 62.9003 76.0615 62.4589 76.1789C61.5231 76.4429 56.4734 77.6529 54.337 78.1295C50.0819 79.0829 47.3717 79.4202 44.0258 79.4202C42.0218 79.4202 40.3268 79.2882 38.1374 78.9655C36.8309 78.7749 36.3012 78.7382 34.6945 78.7089C32.3374 78.6649 31.481 78.7455 27.5437 79.3835C23.8094 79.9922 23.059 80.0802 21.0992 80.1462L19.466 80.2049L18.8215 80.4835L18.1859 80.7695L17.8504 80.5055C17.6738 80.3589 17.1088 80.0729 16.5968 79.8675C16.0848 79.6622 15.4492 79.3909 15.1843 79.2589C14.7606 79.0462 14.6193 79.0169 14.0808 79.0169C13.1097 79.0169 12.6242 79.2442 11.4147 80.2635C10.8585 80.7255 10.2671 81.1875 10.0817 81.2902C9.9051 81.3855 9.08408 81.6862 8.26307 81.9502C5.89713 82.7055 4.43166 83.3949 3.08979 84.3775C2.72784 84.6415 2.28643 84.9129 2.1187 84.9715C1.95096 85.0375 1.61549 85.1622 1.3683 85.2575C1.12995 85.3529 0.820961 85.4482 0.679711 85.4775C0.547289 85.4995 0.344243 85.6242 0.220649 85.7415C-0.220757 86.1742 0.0176021 86.5629 0.785649 86.6802C1.05932 86.7242 3.00151 86.7535 5.37627 86.7535C9.1194 86.7535 9.55198 86.7389 10.1964 86.6142C10.7173 86.5115 11.247 86.4675 12.2181 86.4675C12.942 86.4602 13.7542 86.4309 14.0278 86.3869C14.3015 86.3502 15.0784 86.2622 15.7581 86.2035C16.4379 86.1375 17.5149 86.0055 18.1417 85.9102C20.2693 85.5802 21.2846 85.4995 23.5269 85.4555C25.1424 85.4262 26.2195 85.4482 27.5437 85.5362C29.7507 85.6829 32.4963 85.7782 36.9898 85.8662C39.6735 85.9249 40.4857 85.9615 40.83 86.0495C41.0772 86.1155 41.6334 86.2182 42.0748 86.2769C42.5162 86.3355 43.1518 86.4675 43.4873 86.5629C43.8492 86.6655 44.4937 86.7755 45.0234 86.8195C47.4953 87.0175 55.3964 86.9589 58.7599 86.7169C61.0199 86.5555 62.0617 86.4382 65.5929 85.9395C71.2252 85.1402 73.5206 84.8469 74.0679 84.8469C74.3416 84.8469 74.5623 84.9495 75.3127 85.4042C75.8159 85.7049 76.5133 86.1082 76.8752 86.2915C77.5197 86.6289 78.994 87.1935 79.2235 87.1935C79.2853 87.1935 79.4354 87.2522 79.5502 87.3329C79.8503 87.5235 80.1416 87.5455 83.9995 87.6775C89.42 87.8609 97.9568 87.9709 104.234 87.9489C107.368 87.9415 107.535 87.9342 107.774 87.7949C107.906 87.7142 108.356 87.5529 108.762 87.4429C109.248 87.3109 109.786 87.0835 110.281 86.8049C112.4 85.6315 112.929 84.7955 112.947 82.5735L112.956 81.4369L112.664 80.9309C111.949 79.6622 109.99 78.7235 106.882 78.1442C104.031 77.6089 100.252 77.3669 94.7963 77.3669C93.2955 77.3669 92.0773 77.3522 92.0773 77.3375C92.0773 77.3155 92.3598 76.9635 92.7129 76.5455C93.0572 76.1275 93.4898 75.6069 93.6752 75.3869C94.1519 74.8002 95.5555 72.4975 96.4825 70.7962C96.9239 69.9822 97.4271 69.1095 97.6125 68.8529C98.7513 67.2249 99.1663 66.0662 99.4487 63.7049C99.6783 61.7835 99.8637 61.2115 100.738 59.5615C101.735 57.6842 101.929 57.0095 101.841 55.6309C101.735 53.9515 101.638 53.2915 101.435 52.9102C101.329 52.7049 101.073 52.2135 100.87 51.8102C100.438 50.9595 99.793 50.0722 98.7248 48.8622C98.1157 48.1729 97.8685 47.8135 97.5066 47.0802C97.2505 46.5742 96.7209 45.6135 96.3148 44.9389L95.582 43.7215L95.5114 42.6362L95.4408 41.5435L96.2618 39.8202C96.712 38.8742 97.1446 37.9649 97.2064 37.8035C97.2947 37.6202 97.4448 37.4589 97.6302 37.3635C98.7248 36.8062 99.0868 36.3882 99.025 35.7355C98.9985 35.4349 98.9279 35.2809 98.6719 35.0095C98.4953 34.8189 98.3452 34.6355 98.3452 34.6062C98.3452 34.5769 98.4423 34.1809 98.5571 33.7189C99.2192 31.1889 99.4664 29.9935 99.5812 28.8569C99.643 28.1602 99.7312 27.8155 99.9873 27.2069C100.287 26.4809 100.305 26.4002 100.261 25.7769C100.234 25.4102 99.9343 23.8629 99.59 22.3302C98.7602 18.6635 98.7513 18.6122 98.3452 17.3802C98.151 16.7935 97.8773 15.8769 97.7361 15.3415C97.586 14.7989 97.2417 13.6695 96.9769 12.8189C96.7032 11.9682 96.4737 11.1835 96.4737 11.0809C96.4737 10.9782 96.5355 10.6409 96.6061 10.3402C96.9327 9.04955 96.9416 8.82954 96.9062 4.72288C96.8974 2.66954 96.8621 2.12688 96.765 2.03154C96.4648 1.73087 95.997 2.02421 95.9175 2.55954C95.891 2.74287 95.7674 3.35888 95.6527 3.92355C95.5291 4.48821 95.432 5.07487 95.432 5.22154C95.432 5.52954 95.2819 5.66154 95.2201 5.41221C95.1936 5.31688 95.1495 4.86221 95.123 4.40021C95.0965 3.93821 95.017 3.27821 94.9464 2.93354C94.8758 2.58887 94.7787 2.01688 94.7257 1.65755C94.5844 0.696877 94.4344 0.513542 93.7988 0.513542C93.3044 0.513542 93.1896 0.674873 93.2602 1.27621C93.3927 2.49355 93.4191 3.14621 93.3573 3.27821C93.3132 3.38087 93.2691 3.32954 93.172 3.04354C92.9424 2.34688 92.8806 2.08288 92.7835 1.39355C92.7305 1.01221 92.6423 0.572212 92.5981 0.425545C92.4569 -0.0291214 91.9713 -0.139122 91.5741 0.19088Z" fill="#222222"/>
</svg>
