<svg width="58" height="48" viewBox="0 0 58 48" fill="none" xmlns="http://www.w3.org/2000/svg">
<path fill-rule="evenodd" clip-rule="evenodd" d="M2.48571 0C1.11289 0 0 1.19391 0 2.66667C0 4.13943 1.11289 5.33333 2.48571 5.33333H55.5143C56.8871 5.33333 58 4.13943 58 2.66667C58 1.19391 56.8871 0 55.5143 0H2.48571ZM2.48571 14.2222C1.11289 14.2222 0 15.4161 0 16.8889C0 18.3616 1.11289 19.5556 2.48571 19.5556L55.5143 19.5556C56.8871 19.5556 58 18.3617 58 16.8889C58 15.4161 56.8871 14.2222 55.5143 14.2222L2.48571 14.2222ZM0 45.3333C0 43.8606 1.11289 42.6667 2.48571 42.6667L55.5143 42.6667C56.8871 42.6667 58 43.8606 58 45.3333C58 46.8061 56.8871 48 55.5143 48L2.48571 48C1.11289 48 0 46.8061 0 45.3333ZM2.48571 28.4444C1.11289 28.4444 0 29.6384 0 31.1111C0 32.5839 1.11289 33.7778 2.48571 33.7778L55.5143 33.7778C56.8871 33.7778 58 32.5839 58 31.1111C58 29.6384 56.8871 28.4445 55.5143 28.4444L2.48571 28.4444Z" fill="white"/>
</svg>
