<svg width="70" height="69" viewBox="0 0 70 69" fill="none" xmlns="http://www.w3.org/2000/svg">
<path d="M65.625 30.0417H39.375V4.29167C39.375 3.15345 38.9141 2.06184 38.0936 1.257C37.2731 0.452157 36.1603 0 35 0C33.8397 0 32.7269 0.452157 31.9064 1.257C31.0859 2.06184 30.625 3.15345 30.625 4.29167V30.0417H4.375C3.21468 30.0417 2.10188 30.4938 1.28141 31.2987C0.460937 32.1035 0 33.1951 0 34.3333C0 35.4715 0.460937 36.5631 1.28141 37.368C2.10188 38.1728 3.21468 38.625 4.375 38.625H30.625V64.375C30.625 65.5132 31.0859 66.6048 31.9064 67.4097C32.7269 68.2145 33.8397 68.6667 35 68.6667C36.1603 68.6667 37.2731 68.2145 38.0936 67.4097C38.9141 66.6048 39.375 65.5132 39.375 64.375V38.625H65.625C66.7853 38.625 67.8981 38.1728 68.7186 37.368C69.5391 36.5631 70 35.4715 70 34.3333C70 33.1951 69.5391 32.1035 68.7186 31.2987C67.8981 30.4938 66.7853 30.0417 65.625 30.0417Z" fill="white"/>
</svg>
