<svg width="157" height="157" viewBox="0 0 157 157" fill="none" xmlns="http://www.w3.org/2000/svg">
<path d="M62.8 114.44L56.8078 108.411L50.7428 114.44L56.8078 120.468L62.8 114.44ZM80.5957 84.7666L56.8078 108.411L68.7923 120.468L92.5802 96.8237L80.5957 84.7666ZM56.8078 120.468L80.5957 144.113L92.5802 132.056L68.7923 108.411L56.8078 120.468Z" fill="white"/>
<path d="M37.9606 94.1054C33.3524 86.3523 31.5067 77.3387 32.7097 68.4628C33.9126 59.5868 38.0971 51.3444 44.614 45.014C51.1309 38.6836 59.616 34.6189 68.7535 33.4503C77.8909 32.2818 87.17 34.0747 95.1515 38.551C103.133 43.0273 109.371 49.9368 112.898 58.2079C116.425 66.479 117.044 75.6494 114.658 84.2969C112.273 92.9444 107.017 100.586 99.705 106.036C92.3932 111.486 83.4345 114.44 74.2182 114.44" stroke="white" stroke-width="17" stroke-linecap="round"/>
</svg>
