<svg width="117" height="111" viewBox="0 0 117 111" fill="none" xmlns="http://www.w3.org/2000/svg">
<path d="M46.7998 80.9097L43.3695 77.2721L39.5119 80.9097L43.3695 84.5474L46.7998 80.9097ZM61.0967 60.5552L43.3695 77.2721L50.2301 84.5474L67.9574 67.8306L61.0967 60.5552ZM43.3695 84.5474L61.0967 101.264L67.9574 93.9889L50.2301 77.2721L43.3695 84.5474Z" fill="white"/>
<path d="M28.2893 66.5331C24.8552 61.0516 23.4797 54.6789 24.3762 48.4036C25.2727 42.1282 28.391 36.3008 33.2475 31.8251C38.1041 27.3495 44.4274 24.4757 51.2369 23.6496C58.0463 22.8234 64.9612 24.091 70.9093 27.2557C76.8573 30.4205 81.506 35.3056 84.1343 41.1533C86.7627 47.001 87.2238 53.4846 85.4462 59.5984C83.6685 65.7123 79.7515 71.1147 74.3026 74.9679C68.8537 78.8211 62.1775 80.9096 55.3093 80.9096" stroke="white" stroke-width="10" stroke-linecap="round"/>
</svg>
