<svg width="46" height="44" viewBox="0 0 46 44" fill="none" xmlns="http://www.w3.org/2000/svg">
<path d="M44.2736 18.5233L38.6 17.6346C38.2678 16.5435 37.8137 15.4947 37.2454 14.502L40.5574 9.97839C40.8252 9.61315 40.7792 9.11543 40.4499 8.79895L36.7164 5.22291C36.3833 4.90459 35.8592 4.86319 35.4771 5.12723L30.8278 8.32975C29.7824 7.77591 28.6784 7.33615 27.5331 7.01691L26.5433 1.60179C26.4627 1.16203 26.0643 0.840027 25.5977 0.840027H20.3177C19.8473 0.840027 19.446 1.16663 19.3702 1.61191L18.4524 6.99759C17.3004 7.31499 16.1945 7.75015 15.1529 8.29663L10.5161 5.12263C10.1331 4.86043 9.61179 4.90275 9.27868 5.22015L5.54715 8.79619C5.21787 9.11175 5.1718 9.60855 5.43964 9.97379L8.70268 14.4477C8.12188 15.4551 7.65915 16.5214 7.32219 17.6309L1.72443 18.5243C1.26171 18.5979 0.921875 18.9824 0.921875 19.4314V24.4914C0.921875 24.9376 1.25595 25.3194 1.71387 25.3976L7.31164 26.3489C7.64668 27.4556 8.10939 28.5219 8.69211 29.5321L5.38875 33.96C5.11611 34.3253 5.15931 34.8267 5.49051 35.1459L9.22299 38.7256C9.55227 39.0412 10.0716 39.0853 10.4528 38.8287L15.128 35.6905C16.1772 36.2435 17.286 36.6823 18.4352 37.0006L19.3721 42.3927C19.448 42.8353 19.8483 43.16 20.3177 43.16H25.5977C26.0633 43.16 26.4617 42.8399 26.5424 42.401L27.5456 36.9822C28.6966 36.6575 29.7996 36.2159 30.8384 35.662L35.5472 38.8277C35.9292 39.0863 36.4476 39.0412 36.7779 38.7256L40.5104 35.1459C40.8425 34.8267 40.8857 34.3234 40.6102 33.9573L37.2521 29.4888C37.8214 28.4952 38.2736 27.4446 38.6028 26.3535L44.2841 25.3976C44.744 25.3203 45.078 24.9376 45.078 24.4914V19.4314C45.079 18.9806 44.7382 18.596 44.2736 18.5233ZM23 28.44C19.2886 28.44 16.28 25.5567 16.28 22C16.28 18.4433 19.2886 15.56 23 15.56C26.7113 15.56 29.72 18.4433 29.72 22C29.72 25.5567 26.7113 28.44 23 28.44Z" fill="white"/>
</svg>
