<svg width="52" height="60" viewBox="0 0 52 60" fill="none" xmlns="http://www.w3.org/2000/svg">
<path d="M46.475 19.4859L49.4325 16.7109C50.0444 16.1303 50.3883 15.3428 50.3883 14.5217C50.3883 13.7006 50.0444 12.9131 49.4325 12.3325C48.8205 11.7519 47.9904 11.4258 47.125 11.4258C46.2595 11.4258 45.4295 11.7519 44.8175 12.3325L41.8925 15.1384C37.3378 11.7956 31.7422 9.98192 25.9837 9.98192C20.2252 9.98192 14.6297 11.7956 10.075 15.1384L7.11746 12.3017C6.50117 11.7211 5.667 11.3965 4.79847 11.3994C3.92994 11.4023 3.0982 11.7324 2.48621 12.3171C1.87423 12.9018 1.53213 13.6932 1.53518 14.5172C1.53822 15.3412 1.88617 16.1303 2.50246 16.7109L5.49246 19.5167C1.92726 23.8258 -0.00721735 29.147 -3.68261e-05 34.625C-0.0106503 38.5576 0.969969 42.4356 2.86004 45.9355C4.75011 49.4355 7.49484 52.456 10.8653 54.7451C14.2358 57.0343 18.1344 58.5257 22.2358 59.095C26.3373 59.6643 30.5228 59.295 34.4433 58.018C38.3638 56.7409 41.9056 54.593 44.7733 51.7535C47.6411 48.9139 49.7517 45.465 50.929 41.6944C52.1064 37.9238 52.3164 33.9408 51.5416 30.0776C50.7668 26.2143 49.0297 22.5828 46.475 19.4859ZM26 53.125C22.1432 53.125 18.3731 52.04 15.1663 50.0072C11.9596 47.9744 9.46022 45.0851 7.98431 41.7047C6.5084 38.3242 6.12224 34.6045 6.87465 31.0159C7.62706 27.4272 9.48426 24.1308 12.2114 21.5436C14.9385 18.9563 18.4131 17.1943 22.1957 16.4805C25.9783 15.7667 29.8991 16.133 33.4623 17.5333C37.0255 18.9335 40.0709 21.3047 42.2136 24.347C44.3563 27.3893 45.5 30.9661 45.5 34.625C45.5 39.5315 43.4455 44.2371 39.7886 47.7065C36.1316 51.1759 31.1717 53.125 26 53.125ZM19.5 6.87504H32.5C33.3619 6.87504 34.1886 6.55019 34.7981 5.97195C35.4076 5.39372 35.75 4.60946 35.75 3.79171C35.75 2.97396 35.4076 2.1897 34.7981 1.61146C34.1886 1.03322 33.3619 0.708374 32.5 0.708374H19.5C18.638 0.708374 17.8114 1.03322 17.2019 1.61146C16.5924 2.1897 16.25 2.97396 16.25 3.79171C16.25 4.60946 16.5924 5.39372 17.2019 5.97195C17.8114 6.55019 18.638 6.87504 19.5 6.87504ZM29.25 25.375C29.25 24.5573 28.9076 23.773 28.2981 23.1948C27.6886 22.6166 26.8619 22.2917 26 22.2917C25.138 22.2917 24.3114 22.6166 23.7019 23.1948C23.0924 23.773 22.75 24.5573 22.75 25.375V31.2025C22.0141 31.827 21.4954 32.6487 21.2625 33.559C21.0296 34.4692 21.0936 35.4251 21.4459 36.3001C21.7982 37.1751 22.4222 37.928 23.2354 38.4592C24.0486 38.9904 25.0127 39.2748 26 39.2748C26.9873 39.2748 27.9513 38.9904 28.7645 38.4592C29.5777 37.928 30.2018 37.1751 30.5541 36.3001C30.9063 35.4251 30.9703 34.4692 30.7374 33.559C30.5046 32.6487 29.9859 31.827 29.25 31.2025V25.375Z" fill="white"/>
</svg>
