<svg width="78" height="74" viewBox="0 0 78 74" fill="none" xmlns="http://www.w3.org/2000/svg">
<path d="M59.4751 26.4858L62.4326 23.7108C63.0446 23.1302 63.3884 22.3428 63.3884 21.5217C63.3884 20.7006 63.0446 19.9131 62.4326 19.3325C61.8206 18.7519 60.9906 18.4257 60.1251 18.4257C59.2596 18.4257 58.4296 18.7519 57.8176 19.3325L54.8926 22.1383C50.3379 18.7956 44.7423 16.9819 38.9838 16.9819C33.2253 16.9819 27.6298 18.7956 23.0751 22.1383L20.1176 19.3017C19.5013 18.7211 18.6671 18.3965 17.7986 18.3994C16.9301 18.4023 16.0983 18.7324 15.4863 19.3171C14.8743 19.9018 14.5323 20.6932 14.5353 21.5172C14.5383 22.3411 14.8863 23.1302 15.5026 23.7108L18.4926 26.5167C14.9274 30.8258 12.9929 36.147 13.0001 41.625C12.9895 45.5576 13.9701 49.4355 15.8602 52.9355C17.7502 56.4354 20.495 59.456 23.8655 61.7451C27.2359 64.0342 31.1345 65.5256 35.236 66.095C39.3374 66.6643 43.5229 66.295 47.4434 65.0179C51.3639 63.7408 54.9057 61.5929 57.7735 58.7534C60.6412 55.9139 62.7518 52.465 63.9291 48.6944C65.1065 44.9238 65.3166 40.9408 64.5418 37.0775C63.767 33.2143 62.0298 29.5827 59.4751 26.4858V26.4858ZM39.0001 60.125C35.1434 60.125 31.3732 59.04 28.1665 57.0072C24.9597 54.9744 22.4603 52.0851 20.9844 48.7046C19.5085 45.3242 19.1224 41.6045 19.8748 38.0158C20.6272 34.4272 22.4844 31.1308 25.2115 28.5435C27.9386 25.9563 31.4132 24.1943 35.1958 23.4805C38.9785 22.7666 42.8993 23.133 46.4624 24.5332C50.0256 25.9335 53.0711 28.3046 55.2137 31.347C57.3564 34.3893 58.5001 37.966 58.5001 41.625C58.5001 46.5315 56.4456 51.2371 52.7887 54.7065C49.1317 58.1759 44.1718 60.125 39.0001 60.125ZM32.5001 13.875H45.5001C46.362 13.875 47.1887 13.5502 47.7982 12.9719C48.4077 12.3937 48.7501 11.6094 48.7501 10.7917C48.7501 9.97392 48.4077 9.18966 47.7982 8.61142C47.1887 8.03319 46.362 7.70834 45.5001 7.70834H32.5001C31.6381 7.70834 30.8115 8.03319 30.202 8.61142C29.5925 9.18966 29.2501 9.97392 29.2501 10.7917C29.2501 11.6094 29.5925 12.3937 30.202 12.9719C30.8115 13.5502 31.6381 13.875 32.5001 13.875V13.875ZM42.2501 32.375C42.2501 31.5573 41.9077 30.773 41.2982 30.1948C40.6887 29.6165 39.862 29.2917 39.0001 29.2917C38.1381 29.2917 37.3115 29.6165 36.702 30.1948C36.0925 30.773 35.7501 31.5573 35.7501 32.375V38.2025C35.0142 38.827 34.4955 39.6487 34.2626 40.5589C34.0298 41.4692 34.0937 42.4251 34.446 43.3001C34.7983 44.1751 35.4223 44.928 36.2355 45.4592C37.0487 45.9904 38.0128 46.2748 39.0001 46.2748C39.9874 46.2748 40.9514 45.9904 41.7646 45.4592C42.5778 44.928 43.2019 44.1751 43.5542 43.3001C43.9065 42.4251 43.9704 41.4692 43.7375 40.5589C43.5047 39.6487 42.986 38.827 42.2501 38.2025V32.375Z" fill="#222222"/>
</svg>
