<?xml version="1.0" encoding="UTF-8"?><!DOCTYPE svg PUBLIC "-//W3C//DTD SVG 1.1//EN" "http://www.w3.org/Graphics/SVG/1.1/DTD/svg11.dtd">
<svg xmlns="http://www.w3.org/2000/svg" xmlns:xlink="http://www.w3.org/1999/xlink"><defs/>
<symbol id="logo" viewBox="0 0 113 88">
    <path d="M91.5741 0.190697L91.3445 0.381363L91.3887 1.56936C91.424 2.47136 91.4152 2.61803 91.3534 2.20003C91.318 1.89936 91.2562 1.50336 91.2298 1.32736C91.1327 0.689362 90.603 0.513359 90.1792 0.982697C90.0203 1.16602 90.0027 1.28336 90.0203 2.07536C90.0291 2.5667 90.0998 3.5127 90.1792 4.18002C90.3646 5.79336 90.4352 7.48736 90.3205 7.62669C90.1527 7.82469 89.932 7.61203 89.42 6.75403C88.8903 5.88136 88.6078 5.57336 88.1399 5.39003C87.4425 5.11869 86.9746 5.61736 87.3542 6.22603C87.4248 6.34336 87.5396 6.66602 87.6102 6.95203C87.7073 7.32603 87.8398 7.60469 88.1046 7.92736C88.3077 8.16936 88.6078 8.60936 88.7667 8.89536C89.0139 9.35003 89.2523 9.58469 90.3999 10.5527L91.7418 11.6894L91.883 12.2027C92.0949 12.958 92.0861 16.6467 91.8742 18.37C91.6623 20.0714 91.5829 23.1734 91.7153 24.3467C91.936 26.2094 91.9802 27.0747 91.9095 27.7274C91.8654 28.094 91.7948 28.424 91.7418 28.468C91.6712 28.5267 91.4681 28.4167 91.0444 28.094C90.6736 27.808 90.1704 27.5294 89.7202 27.346C89.1198 27.104 88.9609 27.0014 88.7756 26.73C88.4313 26.246 88.1046 25.96 87.9016 25.96C87.7956 25.96 87.6279 25.9087 87.5308 25.8427C87.3189 25.7107 87.0364 25.7547 86.2507 26.0334C85.8623 26.1727 85.3856 26.268 84.7588 26.3267C84.2555 26.3707 83.6023 26.4734 83.3021 26.5467C81.0333 27.1334 78.0494 29.9054 77.1313 32.2814C76.8929 32.8974 76.734 33.1834 76.5309 33.352C76.3809 33.484 76.2131 33.5867 76.1513 33.5867C76.0984 33.5794 75.8865 33.2934 75.6834 32.9487C75.3568 32.3987 75.3038 32.3474 75.3038 32.56C75.3038 32.7874 75.295 32.7947 74.9507 32.7654C74.4916 32.7287 74.4916 32.846 74.9507 33.1027C75.295 33.2934 75.295 33.3007 75.2774 33.7114L75.2597 34.1367L74.5534 34.342C73.9002 34.5327 73.7854 34.5987 72.9732 35.2587C72.1963 35.8894 72.0727 36.0287 71.8874 36.4467C71.7726 36.7107 71.702 36.9674 71.7284 37.0114C71.7461 37.0627 71.7108 37.2167 71.6402 37.356C71.4813 37.6714 71.4724 37.9647 71.6137 38.0014C71.6843 38.0234 71.6755 38.192 71.5607 38.6614C71.4548 39.138 71.4018 39.82 71.3753 41.4774C71.3223 44.528 71.2517 45.694 71.0928 46.4494C70.9251 47.2267 70.9781 48.9207 71.1899 49.9767C71.2694 50.336 71.3312 50.82 71.3312 51.04C71.3312 51.26 71.4106 51.6854 71.5077 51.986C71.6049 52.2794 71.6578 52.602 71.6313 52.6974C71.6049 52.7927 71.6225 52.9834 71.6843 53.13C71.7638 53.3354 71.7638 53.416 71.6755 53.504C71.596 53.592 71.6049 53.6654 71.7284 53.9C71.852 54.1347 71.8697 54.2447 71.7991 54.4794C71.7461 54.6407 71.7196 54.846 71.7373 54.9414C71.7549 55.0367 71.8785 55.638 72.0021 56.2834C72.1257 56.9287 72.3111 57.6547 72.4082 57.8967C72.5053 58.1387 72.6113 58.5347 72.6466 58.7767C72.6995 59.2094 72.7084 59.2167 72.9644 59.2094C73.1145 59.2094 73.2557 59.2387 73.291 59.2754C73.344 59.3487 73.5382 58.8794 73.5382 58.652C73.5382 58.4027 73.7324 57.7867 73.8119 57.7867C73.856 57.7867 73.8913 57.904 73.8913 58.0434C73.8913 58.1827 73.9266 58.3 73.962 58.3C74.0061 58.3 74.1738 58.102 74.3327 57.8527C74.5005 57.6107 74.6947 57.3687 74.7653 57.3247C74.8713 57.2514 74.8801 57.2734 74.8271 57.5007C74.7653 57.772 74.8271 58.0067 74.9507 58.0067C74.986 58.0067 75.0655 57.8527 75.1273 57.6547C75.2332 57.2807 75.5598 56.584 76.0013 55.7847C76.2661 55.2934 76.2749 55.286 76.4691 55.396C76.7781 55.572 76.9459 55.5354 77.2372 55.2274C77.3873 55.0734 77.5109 54.9267 77.5109 54.9047C77.5109 54.8827 77.555 54.7727 77.5991 54.6627L77.6963 54.4647L77.9523 54.758C78.1818 55.0147 78.6585 55.3594 78.6585 55.264C78.6585 55.2494 78.5967 55.1394 78.5261 55.0294C78.4555 54.912 78.3937 54.7654 78.3937 54.6994C78.3937 54.6407 78.3319 54.5234 78.2613 54.4427C78.0759 54.2447 78.1023 53.9807 78.3584 53.218C78.5526 52.646 78.5791 52.4334 78.5526 51.8247C78.5349 51.436 78.5438 51.1134 78.5791 51.1134C78.6674 51.1134 79.6826 52.0154 79.7973 52.1987C79.8591 52.294 79.9651 52.5287 80.0357 52.7267C80.1681 53.086 80.3888 53.2547 80.4859 53.0494C80.5124 52.9907 80.433 52.7634 80.3094 52.558C80.0092 52.0594 79.6208 50.996 79.6826 50.864C79.7091 50.8054 79.6296 50.578 79.4972 50.3654C79.3648 50.1527 79.197 49.8447 79.1352 49.6907C79.0646 49.5294 78.8174 49.148 78.5791 48.8474C77.9964 48.0847 77.811 47.7547 77.7492 47.388C77.7227 47.1827 77.5727 46.904 77.3431 46.6254C77.0695 46.288 76.9988 46.134 77.043 46.024C77.2372 45.584 77.0077 44.6527 76.5751 44.132C76.3014 43.8094 75.8335 42.5407 75.8335 42.1154C75.8335 41.9467 75.7717 41.5654 75.6923 41.272C75.1449 39.116 75.1891 36.828 75.8159 35.7867C76.0189 35.4494 76.0984 35.376 76.3191 35.3614C76.4691 35.3467 76.6281 35.31 76.6722 35.2734C76.7252 35.244 76.8929 35.1927 77.0518 35.1634C77.2902 35.1267 77.3343 35.134 77.3343 35.2514C77.3343 35.3247 77.4491 35.5814 77.5991 35.816C77.8552 36.2487 77.8552 36.256 77.8022 37.2094C77.7492 38.3167 77.8552 38.786 78.3584 39.644C79.1352 40.9567 80.9097 42.1667 82.0574 42.1667C82.2516 42.1667 82.437 42.2254 82.5959 42.35C82.7901 42.504 82.9225 42.5334 83.3374 42.5334C83.6817 42.5334 83.8848 42.4967 83.9554 42.4234C84.0172 42.3574 84.2114 42.3134 84.4056 42.3134C84.7146 42.3134 84.7499 42.3354 84.7499 42.4894C84.7499 42.592 84.7852 42.7534 84.8382 42.8634C84.9971 43.2154 84.5734 45.122 84.079 46.2514C83.4875 47.6227 83.4434 47.9454 83.6906 49.1774C83.8759 50.1234 83.8848 50.2994 83.823 51.7734C83.7082 54.318 83.7347 55.616 83.9201 56.056C84.0084 56.2467 84.0348 56.4814 83.9995 56.6867C83.9731 56.87 83.9377 57.64 83.9201 58.41C83.8848 59.9207 83.7259 60.7274 83.2933 61.622C83.1697 61.8787 83.0814 62.172 83.0902 62.2674C83.1167 62.5167 82.6665 63.8294 82.3928 64.3134C81.9338 65.142 79.506 67.408 78.6585 67.8187C78.4378 67.9214 78.1288 68.0974 77.9699 68.2074C77.7227 68.3687 77.608 68.398 77.3166 68.3614C77.0165 68.332 76.9724 68.3467 76.9988 68.464C77.0341 68.6474 75.5157 69.322 74.5093 69.5714C73.3793 69.8427 71.9668 70.3047 71.4371 70.5687C70.7397 70.9134 69.8657 71.5587 69.2124 72.1967C68.8946 72.512 68.4974 72.8567 68.3208 72.9667C68.1531 73.084 67.8264 73.4507 67.5969 73.7954C67.1025 74.5214 66.8112 74.7634 66.3698 74.8294C66.1667 74.8587 65.999 74.9467 65.9107 75.0567C65.6988 75.3207 65.1074 75.5554 64.7895 75.4967C64.5777 75.46 64.4894 75.4894 64.2775 75.6874C64.0656 75.878 63.9332 75.9294 63.6331 75.944C63.4212 75.9514 62.9003 76.0614 62.4589 76.1787C61.5231 76.4427 56.4734 77.6527 54.337 78.1294C50.0819 79.0827 47.3717 79.42 44.0258 79.42C42.0218 79.42 40.3268 79.288 38.1374 78.9654C36.8309 78.7747 36.3012 78.738 34.6945 78.7087C32.3374 78.6647 31.481 78.7454 27.5437 79.3834C23.8094 79.992 23.059 80.08 21.0992 80.146L19.466 80.2047L18.8215 80.4834L18.1859 80.7694L17.8504 80.5054C17.6738 80.3587 17.1088 80.0727 16.5968 79.8674C16.0848 79.662 15.4492 79.3907 15.1843 79.2587C14.7606 79.046 14.6193 79.0167 14.0808 79.0167C13.1097 79.0167 12.6242 79.244 11.4147 80.2634C10.8585 80.7254 10.2671 81.1874 10.0817 81.29C9.9051 81.3854 9.08408 81.686 8.26307 81.95C5.89713 82.7054 4.43166 83.3947 3.08979 84.3774C2.72784 84.6414 2.28643 84.9127 2.1187 84.9714C1.95096 85.0374 1.61549 85.162 1.3683 85.2574C1.12995 85.3527 0.820961 85.448 0.679711 85.4774C0.547289 85.4994 0.344243 85.624 0.220649 85.7414C-0.220757 86.174 0.0176021 86.5627 0.785649 86.68C1.05932 86.724 3.00151 86.7534 5.37627 86.7534C9.1194 86.7534 9.55198 86.7387 10.1964 86.614C10.7173 86.5114 11.247 86.4674 12.2181 86.4674C12.942 86.46 13.7542 86.4307 14.0278 86.3867C14.3015 86.35 15.0784 86.262 15.7581 86.2034C16.4379 86.1374 17.5149 86.0054 18.1417 85.91C20.2693 85.58 21.2846 85.4994 23.5269 85.4554C25.1424 85.426 26.2195 85.448 27.5437 85.536C29.7507 85.6827 32.4963 85.778 36.9898 85.866C39.6735 85.9247 40.4857 85.9614 40.83 86.0494C41.0772 86.1154 41.6334 86.218 42.0748 86.2767C42.5162 86.3354 43.1518 86.4674 43.4873 86.5627C43.8492 86.6654 44.4937 86.7754 45.0234 86.8194C47.4953 87.0174 55.3964 86.9587 58.7599 86.7167C61.0199 86.5554 62.0617 86.438 65.5929 85.9394C71.2252 85.14 73.5206 84.8467 74.0679 84.8467C74.3416 84.8467 74.5623 84.9494 75.3127 85.404C75.8159 85.7047 76.5133 86.108 76.8752 86.2914C77.5197 86.6287 78.994 87.1934 79.2235 87.1934C79.2853 87.1934 79.4354 87.252 79.5502 87.3327C79.8503 87.5234 80.1416 87.5454 83.9995 87.6774C89.42 87.8607 97.9568 87.9707 104.234 87.9487C107.368 87.9414 107.535 87.934 107.774 87.7947C107.906 87.714 108.356 87.5527 108.762 87.4427C109.248 87.3107 109.786 87.0834 110.281 86.8047C112.4 85.6314 112.929 84.7954 112.947 82.5734L112.956 81.4367L112.664 80.9307C111.949 79.662 109.99 78.7234 106.882 78.144C104.031 77.6087 100.252 77.3667 94.7963 77.3667C93.2955 77.3667 92.0773 77.352 92.0773 77.3374C92.0773 77.3154 92.3598 76.9634 92.7129 76.5454C93.0572 76.1274 93.4898 75.6067 93.6752 75.3867C94.1519 74.8 95.5555 72.4974 96.4825 70.796C96.9239 69.982 97.4271 69.1094 97.6125 68.8527C98.7513 67.2247 99.1663 66.066 99.4487 63.7047C99.6783 61.7834 99.8637 61.2114 100.738 59.5614C101.735 57.684 101.929 57.0094 101.841 55.6307C101.735 53.9514 101.638 53.2914 101.435 52.91C101.329 52.7047 101.073 52.2134 100.87 51.81C100.438 50.9594 99.793 50.072 98.7248 48.862C98.1157 48.1727 97.8685 47.8134 97.5066 47.08C97.2505 46.574 96.7209 45.6134 96.3148 44.9387L95.582 43.7214L95.5114 42.636L95.4408 41.5434L96.2618 39.82C96.712 38.874 97.1446 37.9647 97.2064 37.8034C97.2947 37.62 97.4448 37.4587 97.6302 37.3634C98.7248 36.806 99.0868 36.388 99.025 35.7354C98.9985 35.4347 98.9279 35.2807 98.6719 35.0094C98.4953 34.8187 98.3452 34.6354 98.3452 34.606C98.3452 34.5767 98.4423 34.1807 98.5571 33.7187C99.2192 31.1887 99.4664 29.9934 99.5812 28.8567C99.643 28.16 99.7312 27.8154 99.9873 27.2067C100.287 26.4807 100.305 26.4 100.261 25.7767C100.234 25.41 99.9343 23.8627 99.59 22.33C98.7602 18.6634 98.7513 18.612 98.3452 17.38C98.151 16.7934 97.8773 15.8767 97.7361 15.3414C97.586 14.7987 97.2417 13.6694 96.9769 12.8187C96.7032 11.968 96.4737 11.1834 96.4737 11.0807C96.4737 10.978 96.5355 10.6407 96.6061 10.34C96.9327 9.04936 96.9416 8.82936 96.9062 4.72269C96.8974 2.66936 96.8621 2.12669 96.765 2.03136C96.4648 1.73069 95.997 2.02402 95.9175 2.55936C95.891 2.74269 95.7674 3.3587 95.6527 3.92336C95.5291 4.48803 95.432 5.07469 95.432 5.22136C95.432 5.52936 95.2819 5.66136 95.2201 5.41203C95.1936 5.3167 95.1495 4.86203 95.123 4.40002C95.0965 3.93803 95.017 3.27803 94.9464 2.93336C94.8758 2.58869 94.7787 2.01669 94.7257 1.65736C94.5844 0.696693 94.4344 0.513359 93.7988 0.513359C93.3044 0.513359 93.1896 0.67469 93.2602 1.27602C93.3927 2.49336 93.4191 3.14603 93.3573 3.27803C93.3132 3.38069 93.2691 3.32936 93.172 3.04336C92.9424 2.34669 92.8806 2.0827 92.7835 1.39336C92.7305 1.01202 92.6423 0.572029 92.5981 0.425362C92.4569 -0.0293045 91.9713 -0.139305 91.5741 0.190697Z" fill="white"/>
    </symbol>
    <symbol id="plus" viewBox="0 0 113 88">
    <path d="M65.625 30.0417H39.375V4.29167C39.375 3.15345 38.9141 2.06184 38.0936 1.257C37.2731 0.452157 36.1603 0 35 0C33.8397 0 32.7269 0.452157 31.9064 1.257C31.0859 2.06184 30.625 3.15345 30.625 4.29167V30.0417H4.375C3.21468 30.0417 2.10188 30.4938 1.28141 31.2987C0.460937 32.1035 0 33.1951 0 34.3333C0 35.4715 0.460937 36.5631 1.28141 37.368C2.10188 38.1728 3.21468 38.625 4.375 38.625H30.625V64.375C30.625 65.5132 31.0859 66.6048 31.9064 67.4097C32.7269 68.2145 33.8397 68.6667 35 68.6667C36.1603 68.6667 37.2731 68.2145 38.0936 67.4097C38.9141 66.6048 39.375 65.5132 39.375 64.375V38.625H65.625C66.7853 38.625 67.8981 38.1728 68.7186 37.368C69.5391 36.5631 70 35.4715 70 34.3333C70 33.1951 69.5391 32.1035 68.7186 31.2987C67.8981 30.4938 66.7853 30.0417 65.625 30.0417Z" fill="white"/>
    </symbol>
    </svg>